# xmcd
#
# Track frame offsets: 
#        150
#        22755
#        45395
#        65375
#        87666
#        109953
#        134995
#        169023
#        204789
#        225015
#        248557
#        274125
#
# Disc length: 4002 seconds
#
# Revision: 0
# Processed by: cddbd v1.5.2PL0 Copyright (c) Steve Scherf et al.
# Submitted via: ExactAudioCopy v1.0b4
#
DISCID=970fa00c
DTITLE=Cee Cee James - Stripped Down and Surrendered
DYEAR=2016
DGENRE=Blues
TTITLE0=Stripped Down and Surrendered
TTITLE1=The Edge Is Where I Stopped
TTITLE2=Hidden And Buried
TTITLE3=He Shut The Demon Down
TTITLE4=Glory Bound
TTITLE5=Love Done Left Home
TTITLE6=Cold Hard Gun
TTITLE7=Thank You For Never Loving Me
TTITLE8=Before 30 Suns
TTITLE9=You're My Man
TTITLE10=Miner Mans Gold
TTITLE11=So Grateful
EXTD=
EXTT0=
EXTT1=
EXTT2=
EXTT3=
EXTT4=
EXTT5=
EXTT6=
EXTT7=
EXTT8=
EXTT9=
EXTT10=
EXTT11=
PLAYORDER=
